<mxfile host="drawio-plugin" modified="2024-01-16T17:33:05.111Z" agent="5.0 (Windows NT 6.2; Win64; x64) AppleWebKit/537.36 (KHTML, like Gecko) Chrome/104.0.5112.102 Safari/537.36" etag="3O3YdNb7VrBjVsMEgfDe" version="20.5.3" type="embed"><diagram id="bsng60tjKpqr9ttXQa3A" name="Page-1"><mxGraphModel dx="1356" dy="1204" grid="0" gridSize="10" guides="1" tooltips="1" connect="1" arrows="1" fold="1" page="0" pageScale="1" pageWidth="850" pageHeight="1100" math="0" shadow="0"><root><mxCell id="0"/><mxCell id="1" parent="0"/><mxCell id="2" value="A" style="ellipse;whiteSpace=wrap;html=1;aspect=fixed;fontSize=21;strokeColor=#000000;fontColor=#000000;fillColor=#FFFFFF;rounded=0;" parent="1" vertex="1"><mxGeometry x="547" y="-181" width="50" height="50" as="geometry"/></mxCell><mxCell id="13" value="C" style="ellipse;whiteSpace=wrap;html=1;aspect=fixed;fillColor=#FFFFFF;fontColor=#000000;strokeColor=#006EAF;fontSize=21;rounded=0;" parent="1" vertex="1"><mxGeometry x="740" y="80" width="30" height="30" as="geometry"/></mxCell><mxCell id="14" value="D" style="ellipse;whiteSpace=wrap;html=1;aspect=fixed;fillColor=#FFFFFF;fontColor=#000000;strokeColor=#005700;fontSize=21;rounded=0;" parent="1" vertex="1"><mxGeometry y="180" width="30" height="30" as="geometry"/></mxCell><mxCell id="21" value="G" style="ellipse;whiteSpace=wrap;html=1;aspect=fixed;fillColor=#FFFFFF;fontColor=#000000;strokeColor=#005700;fontSize=21;rounded=0;" parent="1" vertex="1"><mxGeometry x="670" y="180" width="30" height="30" as="geometry"/></mxCell><mxCell id="22" value="H" style="ellipse;whiteSpace=wrap;html=1;aspect=fixed;fillColor=#FFFFFF;fontColor=#000000;strokeColor=#006EAF;fontSize=21;rounded=0;" parent="1" vertex="1"><mxGeometry x="800" y="180" width="30" height="30" as="geometry"/></mxCell><mxCell id="23" value="&lt;font style=&quot;font-size: 19px;&quot;&gt;B&lt;/font&gt;" style="ellipse;whiteSpace=wrap;html=1;aspect=fixed;fillColor=#FFFFFF;fontColor=#000000;strokeColor=#005700;rounded=0;" parent="1" vertex="1"><mxGeometry x="60" y="80" width="30" height="30" as="geometry"/></mxCell><mxCell id="28" value="E" style="ellipse;whiteSpace=wrap;html=1;aspect=fixed;fillColor=#FFFFFF;fontColor=#000000;strokeColor=#006EAF;fontSize=21;rounded=0;" parent="1" vertex="1"><mxGeometry x="130" y="180" width="30" height="30" as="geometry"/></mxCell><mxCell id="52" value="I" style="ellipse;whiteSpace=wrap;html=1;aspect=fixed;fillColor=#FFFFFF;fontColor=#000000;strokeColor=#005700;fontSize=21;rounded=0;" parent="1" vertex="1"><mxGeometry x="-70" y="260" width="30" height="30" as="geometry"/></mxCell><mxCell id="55" value="J" style="ellipse;whiteSpace=wrap;html=1;aspect=fixed;fillColor=#FFFFFF;fontColor=#000000;strokeColor=#006EAF;fontSize=21;rounded=0;" parent="1" vertex="1"><mxGeometry x="30" y="260" width="30" height="30" as="geometry"/></mxCell><mxCell id="58" value="K" style="ellipse;whiteSpace=wrap;html=1;aspect=fixed;fillColor=#FFFFFF;fontColor=#000000;strokeColor=#005700;fontSize=21;rounded=0;" parent="1" vertex="1"><mxGeometry x="129" y="259" width="30" height="30" as="geometry"/></mxCell><mxCell id="60" value="Y" style="ellipse;whiteSpace=wrap;html=1;aspect=fixed;fillColor=#FFFFFF;fontColor=#000000;strokeColor=#006EAF;fontSize=21;rounded=0;" parent="1" vertex="1"><mxGeometry x="240" y="260" width="30" height="30" as="geometry"/></mxCell><mxCell id="79" value="A&amp;nbsp; &amp;nbsp;B&amp;nbsp; &amp;nbsp;D&amp;nbsp; &amp;nbsp;I&amp;nbsp; &amp;nbsp;J&amp;nbsp; &amp;nbsp;E&amp;nbsp; &amp;nbsp;K&amp;nbsp; &amp;nbsp;Y&amp;nbsp; &amp;nbsp;C&amp;nbsp; &amp;nbsp;G&amp;nbsp; &amp;nbsp;H&amp;nbsp;" style="text;html=1;align=center;verticalAlign=middle;resizable=0;points=[];autosize=1;strokeColor=none;fillColor=none;fontSize=21;rounded=0;" parent="1" vertex="1"><mxGeometry x="325" y="340" width="350" height="40" as="geometry"/></mxCell><mxCell id="80" value="&lt;div style=&quot;background-color:#2b2b2b;color:#a9b7c6;font-family:'JetBrains Mono',monospace;font-size:9,8pt;&quot;&gt;&lt;pre&gt;System.&lt;span style=&quot;color:#9876aa;font-style:italic;&quot;&gt;out&lt;/span&gt;.print(node.&lt;span style=&quot;color:#9876aa;&quot;&gt;data &lt;/span&gt;+ &lt;span style=&quot;color:#6a8759;&quot;&gt;&quot; &quot;&lt;/span&gt;)&lt;span style=&quot;color:#cc7832;&quot;&gt;;&lt;br&gt;&lt;/span&gt;depthTreeTraversal(node.&lt;span style=&quot;color:#9876aa;&quot;&gt;left&lt;/span&gt;)&lt;span style=&quot;color:#cc7832;&quot;&gt;;&lt;br&gt;&lt;/span&gt;depthTreeTraversal(node.&lt;span style=&quot;color:#9876aa;&quot;&gt;right&lt;/span&gt;)&lt;span style=&quot;color:#cc7832;&quot;&gt;;&lt;/span&gt;&lt;/pre&gt;&lt;/div&gt;" style="text;html=1;align=center;verticalAlign=middle;resizable=0;points=[];autosize=1;strokeColor=none;fillColor=none;fontSize=21;rounded=0;" parent="1" vertex="1"><mxGeometry x="300" y="365" width="420" height="130" as="geometry"/></mxCell><mxCell id="86" value="" style="ellipse;whiteSpace=wrap;html=1;aspect=fixed;strokeColor=#001DBC;fontColor=#ffffff;fillColor=#0050ef;rounded=0;" vertex="1" parent="1"><mxGeometry x="-80.5" y="270.5" width="10.5" height="10.5" as="geometry"/></mxCell><mxCell id="92" value="" style="ellipse;whiteSpace=wrap;html=1;aspect=fixed;strokeColor=#001DBC;fontColor=#ffffff;fillColor=#0050ef;rounded=0;" vertex="1" parent="1"><mxGeometry x="730" y="90" width="10" height="10" as="geometry"/></mxCell><mxCell id="93" value="" style="ellipse;whiteSpace=wrap;html=1;aspect=fixed;strokeColor=#001DBC;fontColor=#ffffff;fillColor=#0050ef;rounded=0;" vertex="1" parent="1"><mxGeometry x="660" y="190" width="10" height="10" as="geometry"/></mxCell><mxCell id="94" value="" style="ellipse;whiteSpace=wrap;html=1;aspect=fixed;strokeColor=#001DBC;fontColor=#ffffff;fillColor=#0050ef;rounded=0;" vertex="1" parent="1"><mxGeometry x="790" y="187.5" width="10" height="10" as="geometry"/></mxCell><mxCell id="97" value="" style="ellipse;whiteSpace=wrap;html=1;aspect=fixed;fillColor=#008a00;fontColor=#ffffff;strokeColor=#005700;" vertex="1" parent="1"><mxGeometry x="250" y="289" width="10" height="10" as="geometry"/></mxCell><mxCell id="98" value="" style="ellipse;whiteSpace=wrap;html=1;aspect=fixed;fillColor=#008a00;fontColor=#ffffff;strokeColor=#005700;" vertex="1" parent="1"><mxGeometry x="40" y="290" width="10" height="10" as="geometry"/></mxCell><mxCell id="99" value="" style="ellipse;whiteSpace=wrap;html=1;aspect=fixed;fillColor=#008a00;fontColor=#ffffff;strokeColor=#005700;" vertex="1" parent="1"><mxGeometry x="139" y="290" width="10" height="10" as="geometry"/></mxCell><mxCell id="95" value="" style="ellipse;whiteSpace=wrap;html=1;aspect=fixed;fillColor=#008a00;fontColor=#ffffff;strokeColor=#005700;" vertex="1" parent="1"><mxGeometry x="70" y="110" width="10" height="10" as="geometry"/></mxCell><mxCell id="96" value="" style="ellipse;whiteSpace=wrap;html=1;aspect=fixed;fillColor=#008a00;fontColor=#ffffff;strokeColor=#005700;" vertex="1" parent="1"><mxGeometry x="139" y="210" width="10" height="10" as="geometry"/></mxCell><mxCell id="101" value="" style="endArrow=none;dashed=1;endFill=0;endSize=12;html=1;rounded=0;fontSize=21;exitX=0.5;exitY=1;exitDx=0;exitDy=0;entryX=0.5;entryY=0;entryDx=0;entryDy=0;" edge="1" parent="1" source="28" target="96"><mxGeometry width="160" relative="1" as="geometry"><mxPoint x="145" y="210" as="sourcePoint"/><mxPoint x="144" y="259" as="targetPoint"/></mxGeometry></mxCell><mxCell id="103" value="" style="ellipse;whiteSpace=wrap;html=1;aspect=fixed;fillColor=#008a00;fontColor=#ffffff;strokeColor=#005700;" vertex="1" parent="1"><mxGeometry x="-60" y="289" width="10" height="10" as="geometry"/></mxCell><mxCell id="104" value="" style="ellipse;whiteSpace=wrap;html=1;aspect=fixed;fillColor=#008a00;fontColor=#ffffff;strokeColor=#005700;" vertex="1" parent="1"><mxGeometry x="10" y="210" width="10" height="10" as="geometry"/></mxCell><mxCell id="105" value="" style="ellipse;whiteSpace=wrap;html=1;aspect=fixed;fillColor=#008a00;fontColor=#ffffff;strokeColor=#005700;" vertex="1" parent="1"><mxGeometry x="750" y="110" width="10" height="10" as="geometry"/></mxCell><mxCell id="106" value="" style="ellipse;whiteSpace=wrap;html=1;aspect=fixed;fillColor=#008a00;fontColor=#ffffff;strokeColor=#005700;" vertex="1" parent="1"><mxGeometry x="680" y="210" width="10" height="10" as="geometry"/></mxCell><mxCell id="107" value="" style="ellipse;whiteSpace=wrap;html=1;aspect=fixed;fillColor=#008a00;fontColor=#ffffff;strokeColor=#005700;" vertex="1" parent="1"><mxGeometry x="810" y="210" width="10" height="10" as="geometry"/></mxCell><mxCell id="108" value="" style="ellipse;whiteSpace=wrap;html=1;aspect=fixed;fillColor=#fa6800;fontColor=#000000;strokeColor=#C73500;" vertex="1" parent="1"><mxGeometry x="770" y="91" width="9" height="9" as="geometry"/></mxCell><mxCell id="109" value="" style="ellipse;whiteSpace=wrap;html=1;aspect=fixed;fillColor=#fa6800;fontColor=#000000;strokeColor=#C73500;" vertex="1" parent="1"><mxGeometry x="700" y="191" width="9" height="9" as="geometry"/></mxCell><mxCell id="110" value="" style="ellipse;whiteSpace=wrap;html=1;aspect=fixed;fillColor=#fa6800;fontColor=#000000;strokeColor=#C73500;" vertex="1" parent="1"><mxGeometry x="830" y="188.5" width="9" height="9" as="geometry"/></mxCell><mxCell id="111" value="" style="ellipse;whiteSpace=wrap;html=1;aspect=fixed;fillColor=#fa6800;fontColor=#000000;strokeColor=#C73500;" vertex="1" parent="1"><mxGeometry x="270" y="269.5" width="9" height="9" as="geometry"/></mxCell><mxCell id="112" value="" style="ellipse;whiteSpace=wrap;html=1;aspect=fixed;fillColor=#fa6800;fontColor=#000000;strokeColor=#C73500;" vertex="1" parent="1"><mxGeometry x="160" y="191" width="9" height="9" as="geometry"/></mxCell><mxCell id="113" value="" style="ellipse;whiteSpace=wrap;html=1;aspect=fixed;fillColor=#fa6800;fontColor=#000000;strokeColor=#C73500;" vertex="1" parent="1"><mxGeometry x="159" y="270.5" width="9" height="9" as="geometry"/></mxCell><mxCell id="114" value="" style="ellipse;whiteSpace=wrap;html=1;aspect=fixed;fillColor=#fa6800;fontColor=#000000;strokeColor=#C73500;" vertex="1" parent="1"><mxGeometry x="61" y="270.5" width="9" height="9" as="geometry"/></mxCell><mxCell id="115" value="" style="ellipse;whiteSpace=wrap;html=1;aspect=fixed;fillColor=#fa6800;fontColor=#000000;strokeColor=#C73500;" vertex="1" parent="1"><mxGeometry x="31" y="191" width="9" height="9" as="geometry"/></mxCell><mxCell id="116" value="" style="ellipse;whiteSpace=wrap;html=1;aspect=fixed;fillColor=#fa6800;fontColor=#000000;strokeColor=#C73500;" vertex="1" parent="1"><mxGeometry x="-40" y="272.5" width="9" height="9" as="geometry"/></mxCell><mxCell id="117" value="" style="ellipse;whiteSpace=wrap;html=1;aspect=fixed;strokeColor=#001DBC;fontColor=#ffffff;fillColor=#0050ef;rounded=0;" vertex="1" parent="1"><mxGeometry x="-10.5" y="190" width="10.5" height="10.5" as="geometry"/></mxCell><mxCell id="118" value="" style="ellipse;whiteSpace=wrap;html=1;aspect=fixed;strokeColor=#001DBC;fontColor=#ffffff;fillColor=#0050ef;rounded=0;" vertex="1" parent="1"><mxGeometry x="49.5" y="89.5" width="10.5" height="10.5" as="geometry"/></mxCell><mxCell id="119" value="" style="ellipse;whiteSpace=wrap;html=1;aspect=fixed;strokeColor=#001DBC;fontColor=#ffffff;fillColor=#0050ef;rounded=0;" vertex="1" parent="1"><mxGeometry x="119.5" y="189.75" width="10.5" height="10.5" as="geometry"/></mxCell><mxCell id="120" value="" style="ellipse;whiteSpace=wrap;html=1;aspect=fixed;strokeColor=#001DBC;fontColor=#ffffff;fillColor=#0050ef;rounded=0;" vertex="1" parent="1"><mxGeometry x="118.5" y="271" width="10.5" height="10.5" as="geometry"/></mxCell><mxCell id="121" value="" style="ellipse;whiteSpace=wrap;html=1;aspect=fixed;strokeColor=#001DBC;fontColor=#ffffff;fillColor=#0050ef;rounded=0;" vertex="1" parent="1"><mxGeometry x="19.5" y="270.5" width="10.5" height="10.5" as="geometry"/></mxCell><mxCell id="128" value="" style="html=1;verticalAlign=bottom;endArrow=open;dashed=1;endSize=8;rounded=0;exitX=0;exitY=1;exitDx=0;exitDy=0;" edge="1" parent="1" source="118"><mxGeometry relative="1" as="geometry"><mxPoint x="-5" y="54" as="sourcePoint"/><mxPoint x="-4" y="189" as="targetPoint"/></mxGeometry></mxCell><mxCell id="129" value="" style="html=1;verticalAlign=bottom;endArrow=open;dashed=1;endSize=8;rounded=0;entryX=0.5;entryY=0;entryDx=0;entryDy=0;exitX=0;exitY=1;exitDx=0;exitDy=0;" edge="1" parent="1" source="117" target="86"><mxGeometry relative="1" as="geometry"><mxPoint x="-105" y="188.5" as="sourcePoint"/><mxPoint x="-73.96231060122943" y="247.5376893987705" as="targetPoint"/></mxGeometry></mxCell><mxCell id="130" value="" style="html=1;verticalAlign=bottom;endArrow=open;dashed=1;endSize=8;rounded=0;entryX=0;entryY=0.5;entryDx=0;entryDy=0;" edge="1" parent="1" target="103"><mxGeometry relative="1" as="geometry"><mxPoint x="-75" y="278" as="sourcePoint"/><mxPoint x="-43.96231060122943" y="339.9976893987705" as="targetPoint"/><Array as="points"><mxPoint x="-75" y="289"/></Array></mxGeometry></mxCell><mxCell id="132" value="" style="html=1;verticalAlign=bottom;endArrow=open;dashed=1;endSize=8;rounded=0;exitX=1;exitY=0.5;exitDx=0;exitDy=0;entryX=0;entryY=1;entryDx=0;entryDy=0;" edge="1" parent="1" source="103" target="116"><mxGeometry relative="1" as="geometry"><mxPoint x="-55" y="298" as="sourcePoint"/><mxPoint x="-24" y="289" as="targetPoint"/><Array as="points"><mxPoint x="-42" y="289"/></Array></mxGeometry></mxCell><mxCell id="134" value="" style="html=1;verticalAlign=bottom;endArrow=open;dashed=1;endSize=8;rounded=0;entryX=0;entryY=1;entryDx=0;entryDy=0;exitX=1;exitY=0;exitDx=0;exitDy=0;" edge="1" parent="1" source="116" target="104"><mxGeometry relative="1" as="geometry"><mxPoint x="1.0376893987706808" y="208.96231060122932" as="sourcePoint"/><mxPoint x="-65.25" y="280.5" as="targetPoint"/></mxGeometry></mxCell><mxCell id="135" value="" style="html=1;verticalAlign=bottom;endArrow=open;dashed=1;endSize=8;rounded=0;entryX=0.5;entryY=0;entryDx=0;entryDy=0;exitX=1;exitY=0.5;exitDx=0;exitDy=0;" edge="1" parent="1" source="104" target="121"><mxGeometry relative="1" as="geometry"><mxPoint x="-22.318019484650904" y="283.818019484651" as="sourcePoint"/><mxPoint x="21.464466094049385" y="228.53553390595062" as="targetPoint"/></mxGeometry></mxCell><mxCell id="136" value="" style="html=1;verticalAlign=bottom;endArrow=open;dashed=1;endSize=8;rounded=0;entryX=0;entryY=1;entryDx=0;entryDy=0;exitX=0.5;exitY=1;exitDx=0;exitDy=0;" edge="1" parent="1" source="121" target="98"><mxGeometry relative="1" as="geometry"><mxPoint x="30.000000000012733" y="225" as="sourcePoint"/><mxPoint x="45.500000000000114" y="210" as="targetPoint"/></mxGeometry></mxCell><mxCell id="137" value="" style="ellipse;whiteSpace=wrap;html=1;aspect=fixed;fillColor=#fa6800;fontColor=#000000;strokeColor=#C73500;" vertex="1" parent="1"><mxGeometry x="88" y="89.5" width="9" height="9" as="geometry"/></mxCell><mxCell id="138" value="" style="ellipse;whiteSpace=wrap;html=1;aspect=fixed;strokeColor=#001DBC;fontColor=#ffffff;fillColor=#0050ef;rounded=0;" vertex="1" parent="1"><mxGeometry x="541" y="-164" width="10.5" height="10.5" as="geometry"/></mxCell><mxCell id="139" value="" style="ellipse;whiteSpace=wrap;html=1;aspect=fixed;fillColor=#fa6800;fontColor=#000000;strokeColor=#C73500;" vertex="1" parent="1"><mxGeometry x="594" y="-160.5" width="9" height="9" as="geometry"/></mxCell><mxCell id="140" value="" style="ellipse;whiteSpace=wrap;html=1;aspect=fixed;fillColor=#008a00;fontColor=#ffffff;strokeColor=#005700;" vertex="1" parent="1"><mxGeometry x="567" y="-131" width="10" height="10" as="geometry"/></mxCell><mxCell id="141" value="" style="html=1;verticalAlign=bottom;endArrow=open;dashed=1;endSize=8;rounded=0;exitX=0;exitY=0.5;exitDx=0;exitDy=0;entryX=1;entryY=0;entryDx=0;entryDy=0;" edge="1" parent="1" source="138" target="118"><mxGeometry relative="1" as="geometry"><mxPoint x="344" y="-46" as="sourcePoint"/><mxPoint x="18" y="37" as="targetPoint"/><Array as="points"><mxPoint x="67" y="59"/></Array></mxGeometry></mxCell><mxCell id="142" value="" style="endArrow=none;html=1;rounded=0;entryX=0.017;entryY=0.686;entryDx=0;entryDy=0;entryPerimeter=0;exitX=0.5;exitY=0;exitDx=0;exitDy=0;" edge="1" parent="1" source="23" target="2"><mxGeometry width="50" height="50" relative="1" as="geometry"><mxPoint x="136" y="137" as="sourcePoint"/><mxPoint x="245" y="65" as="targetPoint"/></mxGeometry></mxCell><mxCell id="143" value="" style="html=1;verticalAlign=bottom;endArrow=open;dashed=1;endSize=8;rounded=0;entryX=0.5;entryY=1;entryDx=0;entryDy=0;" edge="1" parent="1" target="115"><mxGeometry relative="1" as="geometry"><mxPoint x="63" y="269" as="sourcePoint"/><mxPoint x="109.78446609406723" y="214.2155339059329" as="targetPoint"/></mxGeometry></mxCell><mxCell id="144" value="" style="html=1;verticalAlign=bottom;endArrow=open;dashed=1;endSize=8;rounded=0;entryX=0.5;entryY=1;entryDx=0;entryDy=0;" edge="1" parent="1" target="114"><mxGeometry relative="1" as="geometry"><mxPoint x="50" y="296" as="sourcePoint"/><mxPoint x="73" y="312" as="targetPoint"/><Array as="points"><mxPoint x="59" y="291"/></Array></mxGeometry></mxCell><mxCell id="145" value="" style="html=1;verticalAlign=bottom;endArrow=open;dashed=1;endSize=8;rounded=0;entryX=0;entryY=1;entryDx=0;entryDy=0;exitX=1;exitY=0;exitDx=0;exitDy=0;" edge="1" parent="1" source="115" target="95"><mxGeometry relative="1" as="geometry"><mxPoint x="73" y="279" as="sourcePoint"/><mxPoint x="45.5" y="210" as="targetPoint"/></mxGeometry></mxCell><mxCell id="146" value="" style="html=1;verticalAlign=bottom;endArrow=open;dashed=1;endSize=8;rounded=0;exitX=0.5;exitY=1;exitDx=0;exitDy=0;entryX=0.5;entryY=0;entryDx=0;entryDy=0;" edge="1" parent="1" source="95" target="119"><mxGeometry relative="1" as="geometry"><mxPoint x="48.68198051533943" y="202.31801948466045" as="sourcePoint"/><mxPoint x="103" y="149" as="targetPoint"/></mxGeometry></mxCell><mxCell id="147" value="" style="html=1;verticalAlign=bottom;endArrow=open;dashed=1;endSize=8;rounded=0;startArrow=none;" edge="1" parent="1" source="78"><mxGeometry relative="1" as="geometry"><mxPoint x="27" y="313" as="sourcePoint"/><mxPoint x="64" y="317" as="targetPoint"/></mxGeometry></mxCell><mxCell id="78" value="&lt;div style=&quot;background-color:#2b2b2b;color:#a9b7c6;font-family:'JetBrains Mono',monospace;font-size:9,8pt;&quot;&gt;&lt;pre&gt;BinaryTree tree = &lt;span style=&quot;color:#cc7832;&quot;&gt;new &lt;/span&gt;BinaryTree(&lt;span style=&quot;color:#6a8759;&quot;&gt;'A'&lt;/span&gt;)&lt;span style=&quot;color:#cc7832;&quot;&gt;;&lt;br&gt;&lt;/span&gt;tree.&lt;span style=&quot;color:#9876aa;&quot;&gt;root&lt;/span&gt;.&lt;span style=&quot;color:#9876aa;&quot;&gt;left &lt;/span&gt;= &lt;span style=&quot;color:#cc7832;&quot;&gt;new &lt;/span&gt;Node(&lt;span style=&quot;color:#6a8759;&quot;&gt;'B'&lt;/span&gt;)&lt;span style=&quot;color:#cc7832;&quot;&gt;;&lt;br&gt;&lt;/span&gt;tree.&lt;span style=&quot;color:#9876aa;&quot;&gt;root&lt;/span&gt;.&lt;span style=&quot;color:#9876aa;&quot;&gt;right &lt;/span&gt;= &lt;span style=&quot;color:#cc7832;&quot;&gt;new &lt;/span&gt;Node(&lt;span style=&quot;color:#6a8759;&quot;&gt;'C'&lt;/span&gt;)&lt;span style=&quot;color:#cc7832;&quot;&gt;;&lt;br&gt;&lt;/span&gt;tree.&lt;span style=&quot;color:#9876aa;&quot;&gt;root&lt;/span&gt;.&lt;span style=&quot;color:#9876aa;&quot;&gt;left&lt;/span&gt;.&lt;span style=&quot;color:#9876aa;&quot;&gt;left &lt;/span&gt;= &lt;span style=&quot;color:#cc7832;&quot;&gt;new &lt;/span&gt;Node(&lt;span style=&quot;color:#6a8759;&quot;&gt;'D'&lt;/span&gt;)&lt;span style=&quot;color:#cc7832;&quot;&gt;;&lt;br&gt;&lt;/span&gt;tree.&lt;span style=&quot;color:#9876aa;&quot;&gt;root&lt;/span&gt;.&lt;span style=&quot;color:#9876aa;&quot;&gt;left&lt;/span&gt;.&lt;span style=&quot;color:#9876aa;&quot;&gt;right &lt;/span&gt;= &lt;span style=&quot;color:#cc7832;&quot;&gt;new &lt;/span&gt;Node(&lt;span style=&quot;color:#6a8759;&quot;&gt;'E'&lt;/span&gt;)&lt;span style=&quot;color:#cc7832;&quot;&gt;;&lt;br&gt;&lt;/span&gt;tree.&lt;span style=&quot;color:#9876aa;&quot;&gt;root&lt;/span&gt;.&lt;span style=&quot;color:#9876aa;&quot;&gt;right&lt;/span&gt;.&lt;span style=&quot;color:#9876aa;&quot;&gt;left &lt;/span&gt;= &lt;span style=&quot;color:#cc7832;&quot;&gt;new &lt;/span&gt;Node(&lt;span style=&quot;color:#6a8759;&quot;&gt;'G'&lt;/span&gt;)&lt;span style=&quot;color:#cc7832;&quot;&gt;;&lt;br&gt;&lt;/span&gt;tree.&lt;span style=&quot;color:#9876aa;&quot;&gt;root&lt;/span&gt;.&lt;span style=&quot;color:#9876aa;&quot;&gt;right&lt;/span&gt;.&lt;span style=&quot;color:#9876aa;&quot;&gt;right &lt;/span&gt;= &lt;span style=&quot;color:#cc7832;&quot;&gt;new &lt;/span&gt;Node(&lt;span style=&quot;color:#6a8759;&quot;&gt;'H'&lt;/span&gt;)&lt;span style=&quot;color:#cc7832;&quot;&gt;;&lt;br&gt;&lt;/span&gt;tree.&lt;span style=&quot;color:#9876aa;&quot;&gt;root&lt;/span&gt;.&lt;span style=&quot;color:#9876aa;&quot;&gt;left&lt;/span&gt;.&lt;span style=&quot;color:#9876aa;&quot;&gt;left&lt;/span&gt;.&lt;span style=&quot;color:#9876aa;&quot;&gt;left &lt;/span&gt;= &lt;span style=&quot;color:#cc7832;&quot;&gt;new &lt;/span&gt;Node(&lt;span style=&quot;color:#6a8759;&quot;&gt;'I'&lt;/span&gt;)&lt;span style=&quot;color:#cc7832;&quot;&gt;;&lt;br&gt;&lt;/span&gt;tree.&lt;span style=&quot;color:#9876aa;&quot;&gt;root&lt;/span&gt;.&lt;span style=&quot;color:#9876aa;&quot;&gt;left&lt;/span&gt;.&lt;span style=&quot;color:#9876aa;&quot;&gt;left&lt;/span&gt;.&lt;span style=&quot;color:#9876aa;&quot;&gt;right &lt;/span&gt;= &lt;span style=&quot;color:#cc7832;&quot;&gt;new &lt;/span&gt;Node(&lt;span style=&quot;color:#6a8759;&quot;&gt;'J'&lt;/span&gt;)&lt;span style=&quot;color:#cc7832;&quot;&gt;;&lt;br&gt;&lt;/span&gt;tree.&lt;span style=&quot;color:#9876aa;&quot;&gt;root&lt;/span&gt;.&lt;span style=&quot;color:#9876aa;&quot;&gt;left&lt;/span&gt;.&lt;span style=&quot;color:#9876aa;&quot;&gt;right&lt;/span&gt;.&lt;span style=&quot;color:#9876aa;&quot;&gt;left &lt;/span&gt;= &lt;span style=&quot;color:#cc7832;&quot;&gt;new &lt;/span&gt;Node(&lt;span style=&quot;color:#6a8759;&quot;&gt;'K'&lt;/span&gt;)&lt;span style=&quot;color:#cc7832;&quot;&gt;;&lt;br&gt;&lt;/span&gt;tree.&lt;span style=&quot;color:#9876aa;&quot;&gt;root&lt;/span&gt;.&lt;span style=&quot;color:#9876aa;&quot;&gt;left&lt;/span&gt;.&lt;span style=&quot;color:#9876aa;&quot;&gt;right&lt;/span&gt;.&lt;span style=&quot;color:#9876aa;&quot;&gt;right &lt;/span&gt;= &lt;span style=&quot;color:#cc7832;&quot;&gt;new &lt;/span&gt;Node(&lt;span style=&quot;color:#6a8759;&quot;&gt;'Y'&lt;/span&gt;)&lt;span style=&quot;color:#cc7832;&quot;&gt;;&lt;/span&gt;&lt;/pre&gt;&lt;/div&gt;" style="text;html=1;align=center;verticalAlign=middle;resizable=0;points=[];autosize=1;strokeColor=none;fillColor=none;fontSize=21;rounded=0;" parent="1" vertex="1"><mxGeometry x="-224.5" y="317" width="520" height="330" as="geometry"/></mxCell><mxCell id="148" value="" style="html=1;verticalAlign=bottom;endArrow=none;dashed=1;endSize=8;rounded=0;" edge="1" parent="1" target="78"><mxGeometry relative="1" as="geometry"><mxPoint x="27" y="313" as="sourcePoint"/><mxPoint x="64" y="317" as="targetPoint"/></mxGeometry></mxCell><mxCell id="150" value="" style="html=1;verticalAlign=bottom;endArrow=open;dashed=1;endSize=8;rounded=0;entryX=0;entryY=0.5;entryDx=0;entryDy=0;exitX=0.81;exitY=0.976;exitDx=0;exitDy=0;exitPerimeter=0;" edge="1" parent="1" source="119" target="96"><mxGeometry relative="1" as="geometry"><mxPoint x="118.5" y="208" as="sourcePoint"/><mxPoint x="123.25" y="263.5" as="targetPoint"/></mxGeometry></mxCell><mxCell id="151" value="" style="html=1;verticalAlign=bottom;endArrow=open;dashed=1;endSize=8;rounded=0;entryX=0.5;entryY=0;entryDx=0;entryDy=0;exitX=0.5;exitY=1;exitDx=0;exitDy=0;" edge="1" parent="1" source="96" target="120"><mxGeometry relative="1" as="geometry"><mxPoint x="114.75" y="220" as="sourcePoint"/><mxPoint x="119.5" y="275.5" as="targetPoint"/></mxGeometry></mxCell><mxCell id="153" value="" style="html=1;verticalAlign=bottom;endArrow=open;dashed=1;endSize=8;rounded=0;entryX=0;entryY=0.5;entryDx=0;entryDy=0;exitX=0;exitY=1;exitDx=0;exitDy=0;" edge="1" parent="1" source="120" target="99"><mxGeometry relative="1" as="geometry"><mxPoint x="119.5" y="293" as="sourcePoint"/><mxPoint x="124.25" y="348.5" as="targetPoint"/></mxGeometry></mxCell><mxCell id="154" value="" style="html=1;verticalAlign=bottom;endArrow=open;dashed=1;endSize=8;rounded=0;exitX=1;exitY=0.5;exitDx=0;exitDy=0;entryX=0.5;entryY=1;entryDx=0;entryDy=0;" edge="1" parent="1" source="99" target="113"><mxGeometry relative="1" as="geometry"><mxPoint x="120" y="310" as="sourcePoint"/><mxPoint x="191" y="293" as="targetPoint"/></mxGeometry></mxCell><mxCell id="155" value="" style="html=1;verticalAlign=bottom;endArrow=open;dashed=1;endSize=8;rounded=0;exitX=0.5;exitY=0;exitDx=0;exitDy=0;entryX=1;entryY=1;entryDx=0;entryDy=0;" edge="1" parent="1" source="113" target="96"><mxGeometry relative="1" as="geometry"><mxPoint x="159" y="305" as="sourcePoint"/><mxPoint x="207" y="245" as="targetPoint"/></mxGeometry></mxCell><mxCell id="156" value="" style="html=1;verticalAlign=bottom;endArrow=open;dashed=1;endSize=8;rounded=0;exitX=0.5;exitY=0;exitDx=0;exitDy=0;entryX=1;entryY=1;entryDx=0;entryDy=0;" edge="1" parent="1" source="112" target="137"><mxGeometry relative="1" as="geometry"><mxPoint x="173.5" y="280.5" as="sourcePoint"/><mxPoint x="175" y="116" as="targetPoint"/></mxGeometry></mxCell><mxCell id="157" value="" style="html=1;verticalAlign=bottom;endArrow=open;dashed=1;endSize=8;rounded=0;exitX=1;exitY=0;exitDx=0;exitDy=0;entryX=0;entryY=1;entryDx=0;entryDy=0;" edge="1" parent="1" source="137" target="140"><mxGeometry relative="1" as="geometry"><mxPoint x="174.5" y="201" as="sourcePoint"/><mxPoint x="105.68198051533955" y="107.18198051533943" as="targetPoint"/></mxGeometry></mxCell><mxCell id="159" value="" style="endArrow=none;html=1;rounded=0;exitX=0.5;exitY=0;exitDx=0;exitDy=0;entryX=0;entryY=1;entryDx=0;entryDy=0;" edge="1" parent="1" source="14" target="23"><mxGeometry width="50" height="50" relative="1" as="geometry"><mxPoint x="296" y="155" as="sourcePoint"/><mxPoint x="346" y="105" as="targetPoint"/></mxGeometry></mxCell><mxCell id="160" value="" style="endArrow=none;html=1;rounded=0;exitX=1;exitY=0;exitDx=0;exitDy=0;entryX=0;entryY=1;entryDx=0;entryDy=0;" edge="1" parent="1" source="52" target="14"><mxGeometry width="50" height="50" relative="1" as="geometry"><mxPoint x="296" y="155" as="sourcePoint"/><mxPoint x="346" y="105" as="targetPoint"/></mxGeometry></mxCell><mxCell id="161" value="" style="endArrow=none;html=1;rounded=0;entryX=1;entryY=1;entryDx=0;entryDy=0;" edge="1" parent="1" target="23"><mxGeometry width="50" height="50" relative="1" as="geometry"><mxPoint x="137" y="179" as="sourcePoint"/><mxPoint x="346" y="105" as="targetPoint"/></mxGeometry></mxCell><mxCell id="163" value="" style="html=1;verticalAlign=bottom;endArrow=open;dashed=1;endSize=8;rounded=0;entryX=0;entryY=0;entryDx=0;entryDy=0;exitX=1;exitY=0.5;exitDx=0;exitDy=0;" edge="1" parent="1" source="96" target="164"><mxGeometry relative="1" as="geometry"><mxPoint x="162" y="218" as="sourcePoint"/><mxPoint x="319.75" y="254.75" as="targetPoint"/></mxGeometry></mxCell><mxCell id="164" value="" style="ellipse;whiteSpace=wrap;html=1;aspect=fixed;strokeColor=#001DBC;fontColor=#ffffff;fillColor=#0050ef;rounded=0;" vertex="1" parent="1"><mxGeometry x="229.5" y="271.75" width="10.5" height="10.5" as="geometry"/></mxCell><mxCell id="166" value="" style="html=1;verticalAlign=bottom;endArrow=open;dashed=1;endSize=8;rounded=0;entryX=0;entryY=0.5;entryDx=0;entryDy=0;" edge="1" parent="1" target="97"><mxGeometry relative="1" as="geometry"><mxPoint x="235" y="282.25" as="sourcePoint"/><mxPoint x="250" y="306.25" as="targetPoint"/><Array as="points"/></mxGeometry></mxCell><mxCell id="167" value="" style="html=1;verticalAlign=bottom;endArrow=open;dashed=1;endSize=8;rounded=0;exitX=1;exitY=0.5;exitDx=0;exitDy=0;" edge="1" parent="1" source="97"><mxGeometry relative="1" as="geometry"><mxPoint x="273" y="308.5" as="sourcePoint"/><mxPoint x="276" y="281" as="targetPoint"/><Array as="points"><mxPoint x="272" y="297"/></Array></mxGeometry></mxCell><mxCell id="168" value="" style="html=1;verticalAlign=bottom;endArrow=open;dashed=1;endSize=8;rounded=0;exitX=0.5;exitY=0;exitDx=0;exitDy=0;entryX=1;entryY=1;entryDx=0;entryDy=0;" edge="1" parent="1" target="112"><mxGeometry relative="1" as="geometry"><mxPoint x="275.82" y="271" as="sourcePoint"/><mxPoint x="207.00198051533272" y="177.18198051533273" as="targetPoint"/><Array as="points"><mxPoint x="272" y="257"/></Array></mxGeometry></mxCell><mxCell id="169" value="" style="endArrow=none;html=1;rounded=0;entryX=1;entryY=1;entryDx=0;entryDy=0;exitX=0.5;exitY=0;exitDx=0;exitDy=0;" edge="1" parent="1" source="55" target="14"><mxGeometry width="50" height="50" relative="1" as="geometry"><mxPoint x="145" y="184" as="sourcePoint"/><mxPoint x="195" y="134" as="targetPoint"/></mxGeometry></mxCell><mxCell id="170" value="" style="endArrow=none;html=1;rounded=0;exitX=0.5;exitY=0;exitDx=0;exitDy=0;" edge="1" parent="1" source="58"><mxGeometry width="50" height="50" relative="1" as="geometry"><mxPoint x="145" y="184" as="sourcePoint"/><mxPoint x="144" y="221" as="targetPoint"/></mxGeometry></mxCell><mxCell id="171" value="" style="endArrow=none;html=1;rounded=0;exitX=0;exitY=0;exitDx=0;exitDy=0;entryX=1;entryY=1;entryDx=0;entryDy=0;" edge="1" parent="1" source="60" target="28"><mxGeometry width="50" height="50" relative="1" as="geometry"><mxPoint x="145" y="184" as="sourcePoint"/><mxPoint x="195" y="134" as="targetPoint"/></mxGeometry></mxCell><mxCell id="173" value="" style="html=1;verticalAlign=bottom;endArrow=open;dashed=1;endSize=8;rounded=0;exitX=1;exitY=1;exitDx=0;exitDy=0;entryX=0;entryY=0;entryDx=0;entryDy=0;" edge="1" parent="1" source="140" target="92"><mxGeometry relative="1" as="geometry"><mxPoint x="237.00198051533272" y="109.99801948466762" as="sourcePoint"/><mxPoint x="544.7844660940675" y="77.71553390593277" as="targetPoint"/></mxGeometry></mxCell><mxCell id="177" value="" style="html=1;verticalAlign=bottom;endArrow=open;dashed=1;endSize=8;rounded=0;exitX=0.5;exitY=1;exitDx=0;exitDy=0;entryX=0;entryY=0.5;entryDx=0;entryDy=0;" edge="1" parent="1" source="93" target="106"><mxGeometry relative="1" as="geometry"><mxPoint x="629" y="214" as="sourcePoint"/><mxPoint x="632" y="221" as="targetPoint"/><Array as="points"><mxPoint x="667" y="209"/></Array></mxGeometry></mxCell><mxCell id="178" value="" style="html=1;verticalAlign=bottom;endArrow=open;dashed=1;endSize=8;rounded=0;exitX=1;exitY=0.5;exitDx=0;exitDy=0;entryX=0.5;entryY=1;entryDx=0;entryDy=0;" edge="1" parent="1" source="106" target="109"><mxGeometry relative="1" as="geometry"><mxPoint x="709" y="220" as="sourcePoint"/><mxPoint x="723.9999999999748" y="235" as="targetPoint"/><Array as="points"><mxPoint x="701" y="213"/></Array></mxGeometry></mxCell><mxCell id="179" value="" style="html=1;verticalAlign=bottom;endArrow=open;dashed=1;endSize=8;rounded=0;exitX=0.5;exitY=0;exitDx=0;exitDy=0;entryX=0;entryY=1;entryDx=0;entryDy=0;" edge="1" parent="1" source="109" target="105"><mxGeometry relative="1" as="geometry"><mxPoint x="699.9999999999998" y="225" as="sourcePoint"/><mxPoint x="714.5" y="210.00000000000023" as="targetPoint"/><Array as="points"/></mxGeometry></mxCell><mxCell id="181" value="" style="html=1;verticalAlign=bottom;endArrow=open;dashed=1;endSize=8;rounded=0;exitX=0.5;exitY=1;exitDx=0;exitDy=0;entryX=0;entryY=0;entryDx=0;entryDy=0;" edge="1" parent="1" source="105" target="94"><mxGeometry relative="1" as="geometry"><mxPoint x="714.5" y="201" as="sourcePoint"/><mxPoint x="791" y="125" as="targetPoint"/><Array as="points"/></mxGeometry></mxCell><mxCell id="182" value="" style="html=1;verticalAlign=bottom;endArrow=open;dashed=1;endSize=8;rounded=0;exitX=0.5;exitY=1;exitDx=0;exitDy=0;entryX=0.1;entryY=0.5;entryDx=0;entryDy=0;entryPerimeter=0;" edge="1" parent="1" target="107"><mxGeometry relative="1" as="geometry"><mxPoint x="795" y="197.5" as="sourcePoint"/><mxPoint x="809.9999999999748" y="212.5" as="targetPoint"/><Array as="points"><mxPoint x="797" y="206.5"/></Array></mxGeometry></mxCell><mxCell id="183" value="" style="html=1;verticalAlign=bottom;endArrow=open;dashed=1;endSize=8;rounded=0;exitX=1;exitY=0.5;exitDx=0;exitDy=0;entryX=0.5;entryY=1;entryDx=0;entryDy=0;" edge="1" parent="1" target="110"><mxGeometry relative="1" as="geometry"><mxPoint x="820.0000000000255" y="215" as="sourcePoint"/><mxPoint x="834.5" y="200" as="targetPoint"/><Array as="points"><mxPoint x="831" y="213"/></Array></mxGeometry></mxCell><mxCell id="184" value="" style="html=1;verticalAlign=bottom;endArrow=open;dashed=1;endSize=8;rounded=0;entryX=1;entryY=1;entryDx=0;entryDy=0;exitX=0.5;exitY=0;exitDx=0;exitDy=0;" edge="1" parent="1" source="110" target="108"><mxGeometry relative="1" as="geometry"><mxPoint x="822" y="149" as="sourcePoint"/><mxPoint x="801.4644660940316" y="198.96446609403165" as="targetPoint"/><Array as="points"/></mxGeometry></mxCell><mxCell id="186" value="" style="html=1;verticalAlign=bottom;endArrow=open;dashed=1;endSize=8;rounded=0;entryX=1;entryY=1;entryDx=0;entryDy=0;" edge="1" parent="1"><mxGeometry relative="1" as="geometry"><mxPoint x="776" y="89" as="sourcePoint"/><mxPoint x="603.0019805152349" y="-151.49801948476505" as="targetPoint"/><Array as="points"><mxPoint x="761" y="6"/><mxPoint x="700" y="-48"/></Array></mxGeometry></mxCell><mxCell id="187" value="" style="endArrow=none;html=1;rounded=0;entryX=1;entryY=1;entryDx=0;entryDy=0;exitX=0;exitY=0;exitDx=0;exitDy=0;" edge="1" parent="1" source="13" target="2"><mxGeometry width="50" height="50" relative="1" as="geometry"><mxPoint x="494" y="180" as="sourcePoint"/><mxPoint x="544" y="130" as="targetPoint"/></mxGeometry></mxCell><mxCell id="188" value="" style="html=1;verticalAlign=bottom;endArrow=open;dashed=1;endSize=8;rounded=0;exitX=0;exitY=1;exitDx=0;exitDy=0;entryX=0;entryY=0;entryDx=0;entryDy=0;" edge="1" parent="1" source="92" target="93"><mxGeometry relative="1" as="geometry"><mxPoint x="674.9976893987971" y="65.00231060120248" as="sourcePoint"/><mxPoint x="644" y="167" as="targetPoint"/><Array as="points"><mxPoint x="651" y="136"/></Array></mxGeometry></mxCell><mxCell id="189" value="" style="endArrow=none;html=1;rounded=0;entryX=0;entryY=1;entryDx=0;entryDy=0;exitX=0.5;exitY=0;exitDx=0;exitDy=0;" edge="1" parent="1" source="21" target="13"><mxGeometry width="50" height="50" relative="1" as="geometry"><mxPoint x="392" y="180" as="sourcePoint"/><mxPoint x="442" y="130" as="targetPoint"/></mxGeometry></mxCell><mxCell id="190" value="" style="endArrow=none;html=1;rounded=0;entryX=1;entryY=1;entryDx=0;entryDy=0;exitX=0.5;exitY=0;exitDx=0;exitDy=0;" edge="1" parent="1" source="22" target="13"><mxGeometry width="50" height="50" relative="1" as="geometry"><mxPoint x="392" y="180" as="sourcePoint"/><mxPoint x="442" y="130" as="targetPoint"/></mxGeometry></mxCell></root></mxGraphModel></diagram></mxfile>